<svg width="208" height="33" viewBox="0 0 208 33" fill="none" xmlns="http://www.w3.org/2000/svg">
<g clip-path="url(#clip0_280_250)">
<mask id="mask0_280_250" style="mask-type:luminance" maskUnits="userSpaceOnUse" x="0" y="0" width="220" height="32">
<path d="M219.952 0H0.332031V32H219.952V0Z" fill="white"/>
</mask>
<g mask="url(#mask0_280_250)">
<path d="M65.2987 15.2026V15.1506C67.0033 14.0354 67.7776 11.8223 67.1766 9.73058C66.593 7.68508 64.8942 6.46587 62.6407 6.46587H48.6978V25.5919H63.987C67.2806 25.5919 68.9794 23.2459 69.2106 20.9173C69.4417 18.5424 68.1763 15.8382 65.3045 15.2026M62.502 13.9083C61.9531 14.6652 61.1672 15.0639 60.2312 15.0639H53.0546V7.59263L60.2312 7.56374C62.3229 7.56374 63.2763 9.50523 63.2763 11.3138C63.2763 12.3019 63.0047 13.2264 62.5078 13.9083M53.0603 16.1907H61.5775C63.0221 16.1907 63.831 17.0574 64.247 17.7855C65.0907 19.2589 65.0907 21.4662 64.2413 22.9281C63.8252 23.6446 63.0278 24.494 61.6006 24.494H61.5775L53.0603 24.4651V16.1849V16.1907Z" fill="#CDC2B1"/>
<path d="M90.0988 24.4651H84.1298C79.8713 24.4651 77.0341 23.2575 77.0341 17.3694V6.46587H72.6831V17.3752C72.712 24.5287 79.8655 25.5919 84.1298 25.5919H94.444V6.46587H90.093V24.4651H90.0988Z" fill="#CDC2B1"/>
<path d="M110.681 7.05525C113.963 7.05525 116.263 8.29179 117.523 10.7302L117.569 10.8169H121.567L121.4 10.5684C120.314 8.97941 118.684 7.76597 116.558 6.95702C114.327 6.10761 112.131 5.93427 110.687 5.93427C108.884 5.93427 105.44 6.20007 102.632 7.97977C99.8585 9.73636 98.4486 12.4521 98.437 16.0636C98.437 19.6461 99.8411 22.3503 102.615 24.0953C105.429 25.8693 108.884 26.1351 110.693 26.1351C112.114 26.1351 114.275 25.9617 116.494 25.1239C118.603 24.3265 120.227 23.1361 121.325 21.5818L121.504 21.3275H117.551L117.505 21.4142C116.246 23.8006 113.986 25.0083 110.791 25.0083C110.756 25.0083 110.722 25.0083 110.693 25.0083C108.006 24.9967 105.978 24.2109 104.666 22.6854C103.389 21.2004 102.753 18.9642 102.765 16.0347C102.776 13.0993 103.424 10.8573 104.683 9.37233C105.989 7.83531 108.012 7.05525 110.693 7.05525" fill="#CDC2B1"/>
<path d="M137.654 15.8671H132.645L139.405 25.5226L139.451 25.5919H144.461L137.706 15.9364L137.654 15.8671Z" fill="#CDC2B1"/>
<path d="M129.94 6.46587H125.589V25.5919H129.94V6.46587Z" fill="#CDC2B1"/>
<path d="M137.625 6.46587L130.818 16.1907H132.228L139.035 6.46587H137.625Z" fill="#CDC2B1"/>
<path d="M152.105 6.46587H147.754V25.5919H163.471V24.4651H152.105V6.46587Z" fill="#CDC2B1"/>
<path d="M170.995 16.9939H177.125L177.911 15.8671H170.995V7.59263H182.36V6.46587H166.644V25.5919H183.973V24.4651H170.995V16.9939Z" fill="#CDC2B1"/>
<path d="M201.099 16.9938H201.354C202.983 16.9938 204.347 16.4276 205.306 15.347C206.155 14.3936 206.623 13.1109 206.623 11.7356C206.623 10.3604 206.155 9.07186 205.306 8.11266C204.347 7.03213 202.983 6.46008 201.354 6.46008H187.139V25.5861H191.49V7.59262L198.933 7.56373C200.371 7.55217 201.175 8.41313 201.591 9.12964C202.44 10.5915 202.446 12.7988 201.602 14.2723C201.18 15.0004 200.377 15.8671 198.933 15.8671H195.321L202.082 25.5226L202.128 25.5919H207.138L201.094 16.9938H201.099Z" fill="#CDC2B1"/>
<path d="M31.3266 18.4962L26.7098 13.9487C26.0164 13.2669 26.0106 12.1459 26.704 11.4583L30.7257 7.4424C31.4133 6.75478 31.4133 5.64536 30.7257 4.96352L25.7679 0H0.96764C0.615166 0 0.332031 0.283135 0.332031 0.635609V16.4738C0.332031 16.7685 0.574718 17.0112 0.869409 17.0112H6.33564C6.63033 17.0112 6.87302 16.7685 6.87302 16.4738V6.20007H22.4917L2.20997 26.8227C1.96728 27.0711 1.96728 27.4698 2.20997 27.7183L5.87338 31.3817C6.12185 31.6302 6.52632 31.6302 6.77479 31.3817L25.3114 12.8508V25.459H18.1753C17.8806 25.459 17.6379 25.7017 17.6379 25.9964V31.4626C17.6379 31.7573 17.8806 32 18.1753 32H31.3151C31.6097 32 31.8524 31.7573 31.8524 31.4626V19.7501C31.8524 19.2821 31.6618 18.8313 31.3266 18.502" fill="#CDC2B1"/>
</g>
</g>
<defs>
<clipPath id="clip0_280_250">
<rect width="207" height="32" fill="white" transform="translate(0.166016 0.5)"/>
</clipPath>
</defs>
</svg>
